<svg width="256" height="256" viewBox="0 0 256 256" fill="none" xmlns="http://www.w3.org/2000/svg">
<path fill-rule="evenodd" clip-rule="evenodd" d="M128 256C198.692 256 256 198.692 256 128C256 57.3075 198.692 0 128 0C57.3078 0 0 57.3075 0 128C0 198.692 57.3078 256 128 256ZM165.855 20.2833C136.244 9.90605 84.1477 10.1254 45.1117 56.4515C5.82813 103.072 16.1781 157.04 36.3828 188.832C56.9188 221.146 97.5695 241.355 138.146 238.453C179.098 235.524 216.766 206.455 231.349 169.947C246.055 133.135 235.053 93.352 213.762 71.2498C210.696 68.0678 205.632 67.9732 202.45 71.0385C199.268 74.1038 199.173 79.1683 202.238 82.3502C219.347 100.11 228.769 133.277 216.491 164.012C204.092 195.05 171.605 220.019 137.004 222.494C102.028 224.995 67.1266 207.378 49.8867 180.251C32.3148 152.602 23.7773 106.601 57.3469 66.7615C91.1648 26.6278 135.729 26.6796 160.563 35.3829C170.618 38.9069 177.815 49.0814 179.213 60.7046C180.577 72.0369 176.27 83.4288 164.77 89.7098C155.296 94.8843 138.662 97.6175 119.966 98.5271L64.9664 96.8402C60.55 96.7047 56.8602 100.175 56.725 104.591C56.5891 109.007 60.0594 112.697 64.4758 112.833L117.238 114.451C120.493 117.372 125.526 124.158 129.034 136.56C133.084 150.88 134.928 172.205 129.695 202.074C128.933 206.426 131.842 210.572 136.195 211.335C140.546 212.097 144.692 209.187 145.455 204.835C151.015 173.101 149.261 149.286 144.43 132.205C142.305 124.696 139.549 118.38 136.493 113.267C150.09 111.726 163.081 108.863 172.44 103.752C190.621 93.8216 197.108 75.4929 195.098 58.7933C193.124 42.3845 182.782 26.2159 165.855 20.2833Z" fill="white"/>
</svg>
