<svg width="32" height="32" viewBox="0 0 32 32" fill="none" xmlns="http://www.w3.org/2000/svg">
<path fill-rule="evenodd" clip-rule="evenodd" d="M16 32C24.8365 32 32 24.8366 32 16C32 7.16344 24.8365 0 16 0C7.16348 0 0 7.16344 0 16C0 24.8366 7.16348 32 16 32ZM20.7318 2.53542C17.0305 1.23826 10.5185 1.26567 5.63896 7.05644C0.728516 12.8839 2.02227 19.63 4.54785 23.6041C7.11484 27.6432 12.1962 30.1694 17.2683 29.8066C22.3872 29.4405 27.0957 25.8069 28.9187 21.2434C30.7568 16.6419 29.3816 11.669 26.7202 8.90622C26.337 8.50847 25.704 8.49665 25.3063 8.87981C24.9085 9.26298 24.8967 9.89603 25.2798 10.2938C27.4184 12.5137 28.5961 16.6596 27.0614 20.5015C25.5115 24.3813 21.4506 27.5024 17.1255 27.8117C12.7535 28.1244 8.39082 25.9223 6.23584 22.5313C4.03936 19.0752 2.97217 13.3252 7.16836 8.34518C11.3956 3.32847 16.9661 3.33495 20.0703 4.42286C21.3272 4.86336 22.2269 6.13518 22.4017 7.58808C22.5721 9.00461 22.0338 10.4286 20.5963 11.2137C19.412 11.8605 17.3327 12.2022 14.9958 12.3159L8.1208 12.105C7.56875 12.0881 7.10752 12.5219 7.09063 13.0739C7.07363 13.6259 7.50742 14.0872 8.05947 14.1041L14.6548 14.3064C15.0616 14.6716 15.6907 15.5198 16.1292 17.07C16.6355 18.86 16.866 21.5257 16.2119 25.2592C16.1166 25.8032 16.4803 26.3215 17.0243 26.4168C17.5683 26.5121 18.0865 26.1484 18.1818 25.6044C18.8769 21.6376 18.6576 18.6607 18.0537 16.5256C17.7882 15.587 17.4437 14.7975 17.0616 14.1583C18.7612 13.9658 20.3852 13.6079 21.555 12.969C23.8276 11.7277 24.6385 9.43661 24.3873 7.34916C24.1405 5.29807 22.8478 3.27698 20.7318 2.53542Z" fill="white"/>
</svg>
