<svg width="44" height="38" viewBox="0 0 44 38" fill="none" xmlns="http://www.w3.org/2000/svg">
<path d="M0.666992 24.3333V21.6666H19.3337V24.3333H0.666992ZM0.666992 13.6666V10.9999H30.0003V13.6666H0.666992ZM0.666992 2.99992V0.333252H30.0003V2.99992H0.666992ZM22.6157 37.6666V31.7743L36.8362 17.6205C37.0995 17.3572 37.3711 17.1794 37.6511 17.0871C37.931 16.9948 38.211 16.9487 38.4909 16.9487C38.7963 16.9487 39.0965 17.0059 39.3913 17.1205C39.686 17.235 39.954 17.4068 40.1952 17.6358L42.6619 20.1538C42.8807 20.417 43.0473 20.6905 43.1619 20.9743C43.2764 21.258 43.3337 21.5418 43.3337 21.8256C43.3337 22.1093 43.279 22.3956 43.1696 22.6845C43.0602 22.9734 42.8909 23.2495 42.6619 23.5128L28.5081 37.6666H22.6157ZM24.9747 35.3076H27.508L36.7542 26.0461L35.5029 24.7795L34.2875 23.4769L24.9747 32.7743V35.3076ZM35.5029 24.7795L34.2875 23.4769L36.7542 26.0461L35.5029 24.7795Z" fill="white"/>
</svg>
