<svg width="48" height="48" viewBox="0 0 48 48" fill="none" xmlns="http://www.w3.org/2000/svg">
<path d="M23.8975 48C20.6291 48 17.5436 47.3684 14.641 46.1051C11.7385 44.8419 9.20429 43.1274 7.03847 40.9615C4.87264 38.7957 3.15811 36.253 1.89487 33.3333C0.631622 30.4137 0 27.3026 0 24C0 20.653 0.645289 17.5196 1.93587 14.6C3.22649 11.6804 4.98547 9.14018 7.2128 6.97947C9.44018 4.8188 12.053 3.11538 15.0513 1.8692C18.0496 0.623068 21.2444 0 24.6359 0C27.747 0 30.7094 0.525644 33.5231 1.57693C36.3368 2.62818 38.8128 4.08629 40.9513 5.95127C43.0898 7.81624 44.7992 10.0385 46.0795 12.6179C47.3598 15.1974 48 18.0103 48 21.0564C48 25.1761 46.812 28.4744 44.4359 30.9513C42.0598 33.4282 38.8034 34.6667 34.6667 34.6667H29.9385C28.8205 34.6667 27.8846 35.0513 27.1308 35.8205C26.3769 36.5897 26 37.5179 26 38.6051C26 39.7197 26.3333 40.6658 27 41.4436C27.6667 42.2214 28 43.118 28 44.1333C28 45.4325 27.6368 46.4017 26.9103 47.0411C26.1838 47.6804 25.1795 48 23.8975 48ZM9.33333 25.3333C10.0786 25.3333 10.7094 25.0752 11.2257 24.559C11.7419 24.0427 12 23.412 12 22.6667C12 21.9214 11.7419 21.2906 11.2257 20.7743C10.7094 20.2581 10.0786 20 9.33333 20C8.58804 20 7.95727 20.2581 7.441 20.7743C6.92478 21.2906 6.66667 21.9214 6.66667 22.6667C6.66667 23.412 6.92478 24.0427 7.441 24.559C7.95727 25.0752 8.58804 25.3333 9.33333 25.3333ZM17.3333 14.6667C18.0786 14.6667 18.7094 14.4086 19.2257 13.8923C19.7419 13.3761 20 12.7453 20 12C20 11.2547 19.7419 10.6239 19.2257 10.1077C18.7094 9.59144 18.0786 9.33333 17.3333 9.33333C16.588 9.33333 15.9573 9.59144 15.441 10.1077C14.9248 10.6239 14.6667 11.2547 14.6667 12C14.6667 12.7453 14.9248 13.3761 15.441 13.8923C15.9573 14.4086 16.588 14.6667 17.3333 14.6667ZM30.6667 14.6667C31.412 14.6667 32.0427 14.4086 32.559 13.8923C33.0752 13.3761 33.3333 12.7453 33.3333 12C33.3333 11.2547 33.0752 10.6239 32.559 10.1077C32.0427 9.59144 31.412 9.33333 30.6667 9.33333C29.9214 9.33333 29.2906 9.59144 28.7743 10.1077C28.2581 10.6239 28 11.2547 28 12C28 12.7453 28.2581 13.3761 28.7743 13.8923C29.2906 14.4086 29.9214 14.6667 30.6667 14.6667ZM38.6667 25.3333C39.412 25.3333 40.0427 25.0752 40.559 24.559C41.0752 24.0427 41.3333 23.412 41.3333 22.6667C41.3333 21.9214 41.0752 21.2906 40.559 20.7743C40.0427 20.2581 39.412 20 38.6667 20C37.9214 20 37.2906 20.2581 36.7743 20.7743C36.2581 21.2906 36 21.9214 36 22.6667C36 23.412 36.2581 24.0427 36.7743 24.559C37.2906 25.0752 37.9214 25.3333 38.6667 25.3333ZM23.8975 45.3333C24.3658 45.3333 24.7222 45.2308 24.9667 45.0257C25.2111 44.8205 25.3333 44.5231 25.3333 44.1333C25.3333 43.5111 25 42.8462 24.3333 42.1385C23.6667 41.4308 23.3333 40.2667 23.3333 38.6461C23.3333 36.7111 23.9778 35.1197 25.2667 33.8718C26.5556 32.6239 28.1333 32 30 32H34.6667C38.0103 32 40.6239 31.0162 42.5077 29.0487C44.3914 27.0812 45.3333 24.4171 45.3333 21.0564C45.3333 15.6444 43.2521 11.2265 39.0897 7.80254C34.9273 4.37862 30.1094 2.66667 24.6359 2.66667C18.4889 2.66667 13.2906 4.73333 9.041 8.86667C4.79145 13 2.66667 18.0444 2.66667 24C2.66667 29.9111 4.74444 34.9444 8.9 39.1C13.0556 43.2556 18.0547 45.3333 23.8975 45.3333Z" fill="white"/>
</svg>
