<svg width="25" height="24" viewBox="0 0 25 24" fill="none" xmlns="http://www.w3.org/2000/svg">
<path fill-rule="evenodd" clip-rule="evenodd" d="M12.4999 0C5.87322 0 0.5 5.50847 0.5 12.3038C0.5 17.7397 3.93854 22.3517 8.70608 23.9786C9.30604 24.0927 9.52637 23.7118 9.52637 23.3869C9.52637 23.0935 9.51524 22.1242 9.50984 21.096C6.17145 21.8404 5.46721 19.6445 5.46721 19.6445C4.92114 18.2225 4.13471 17.8442 4.13471 17.8442C3.04576 17.0806 4.21674 17.0961 4.21674 17.0961C5.42174 17.1831 6.05603 18.3642 6.05603 18.3642C7.12654 20.2451 8.86346 19.7014 9.54831 19.387C9.65609 18.5919 9.96688 18.0488 10.3101 17.7417C7.64479 17.431 4.84309 16.3758 4.84309 11.6613C4.84309 10.3182 5.31173 9.22039 6.07924 8.35895C5.95477 8.04893 5.54399 6.79745 6.19577 5.10277C6.19577 5.10277 7.20333 4.77189 9.49601 6.36387C10.4535 6.09134 11.48 5.95475 12.4998 5.94986C13.5196 5.95475 14.547 6.09134 15.5059 6.36387C17.7964 4.77205 18.8026 5.10261 18.8026 5.10261C19.4557 6.79712 19.0451 8.04861 18.9203 8.35846C19.6897 9.22006 20.1552 10.3177 20.1552 11.6608C20.1552 16.3869 17.3481 17.4271 14.6761 17.7317C15.1064 18.1138 15.49 18.8624 15.49 20.0104C15.49 21.6567 15.4763 22.9819 15.4763 23.3869C15.4763 23.7145 15.6921 24.0979 16.3003 23.9773C21.0662 22.3486 24.5 17.7383 24.5 12.304C24.4998 5.50847 19.1273 0 12.4999 0Z" fill="#101011"/>
</svg>
