<svg width="60" height="25" viewBox="0 0 60 25" fill="none" xmlns="http://www.w3.org/2000/svg">
<path d="M0.666992 24.2313V21.9286C0.666992 20.2908 1.5421 18.9317 3.29233 17.8513C5.04299 16.7713 7.2961 16.2313 10.0517 16.2313C10.4583 16.2313 10.8941 16.2508 11.359 16.2899C11.8243 16.3295 12.3185 16.3937 12.8417 16.4826C12.4243 17.2106 12.1199 17.9575 11.9283 18.7233C11.7372 19.489 11.6417 20.2566 11.6417 21.0259V24.2313H0.666992ZM16.667 24.2313V21.2313C16.667 20.1566 16.979 19.1741 17.603 18.2839C18.227 17.3941 19.1474 16.6244 20.3643 15.9746C21.5817 15.3253 22.9997 14.8381 24.6183 14.5133C26.237 14.1884 28.0241 14.0259 29.9797 14.0259C31.973 14.0259 33.779 14.1884 35.3977 14.5133C37.0163 14.8381 38.4343 15.3253 39.6517 15.9746C40.8685 16.6244 41.7865 17.3941 42.4057 18.2839C43.0243 19.1741 43.3337 20.1566 43.3337 21.2313V24.2313H16.667ZM48.359 24.2313V21.0413C48.359 20.1906 48.2659 19.389 48.0797 18.6366C47.8934 17.8841 47.6141 17.1661 47.2417 16.4826C47.7985 16.3937 48.2985 16.3295 48.7417 16.2899C49.1843 16.2508 49.6039 16.2313 50.0003 16.2313C52.7559 16.2313 55.0003 16.7688 56.7337 17.8439C58.467 18.919 59.3337 20.2806 59.3337 21.9286V24.2313H48.359ZM19.4103 21.5646H40.6057V21.0006C40.503 19.7353 39.4661 18.701 37.495 17.8979C35.5243 17.0944 33.0261 16.6926 30.0003 16.6926C26.9745 16.6926 24.4763 17.0944 22.5057 17.8979C20.5345 18.701 19.5028 19.7353 19.4103 21.0006V21.5646ZM10.0377 13.7179C8.99055 13.7179 8.09855 13.3464 7.36166 12.6033C6.62521 11.8601 6.25699 10.9668 6.25699 9.92325C6.25699 8.89081 6.62855 8.00881 7.37166 7.27725C8.11477 6.5457 9.0081 6.17992 10.0517 6.17992C11.0841 6.17992 11.9748 6.5457 12.7237 7.27725C13.4721 8.00881 13.8463 8.89592 13.8463 9.93859C13.8463 10.9506 13.4814 11.8335 12.7517 12.5873C12.0214 13.341 11.1168 13.7179 10.0377 13.7179ZM50.0003 13.7179C48.9781 13.7179 48.0901 13.341 47.3363 12.5873C46.5825 11.8335 46.2057 10.9506 46.2057 9.93859C46.2057 8.89592 46.5825 8.00881 47.3363 7.27725C48.0901 6.5457 48.9814 6.17992 50.0103 6.17992C51.0703 6.17992 51.9661 6.5457 52.6977 7.27725C53.4292 8.00881 53.795 8.89081 53.795 9.92325C53.795 10.9668 53.4314 11.8601 52.7043 12.6033C51.9768 13.3464 51.0754 13.7179 50.0003 13.7179ZM30.0183 12.0259C28.3997 12.0259 27.0177 11.4575 25.8723 10.3206C24.727 9.18414 24.1543 7.80392 24.1543 6.17992C24.1543 4.52348 24.7225 3.13503 25.859 2.01459C26.9959 0.893699 28.3763 0.333252 30.0003 0.333252C31.6568 0.333252 33.0452 0.89192 34.1657 2.00925C35.2861 3.12614 35.8463 4.51036 35.8463 6.16192C35.8463 7.78059 35.2879 9.16259 34.171 10.3079C33.0541 11.4533 31.6699 12.0259 30.0183 12.0259ZM30.0257 9.35925C30.9012 9.35925 31.6457 9.04392 32.259 8.41325C32.8728 7.78214 33.1797 7.02903 33.1797 6.15392C33.1797 5.27881 32.875 4.53436 32.2657 3.92059C31.6563 3.30681 30.9012 2.99992 30.0003 2.99992C29.1421 2.99992 28.3977 3.30481 27.767 3.91459C27.1363 4.52392 26.821 5.27903 26.821 6.17992C26.821 7.0377 27.1363 7.78214 27.767 8.41325C28.3977 9.04392 29.1505 9.35925 30.0257 9.35925Z" fill="white"/>
</svg>
