<svg width="24" height="24" viewBox="0 0 24 24" fill="none" xmlns="http://www.w3.org/2000/svg">
<path d="M12 0C18.6274 1.67627e-05 24 5.37256 24 12C24 18.6274 18.6274 24 12 24C5.37254 24 0 18.6275 0 12C1.14619e-05 5.37255 5.37255 0 12 0ZM5.96094 17.9131H8.82812V9.28613H5.96094V17.9131ZM15.8682 9.08301C14.344 9.08301 13.6644 9.92224 13.2832 10.5088V10.5371H13.2637C13.2688 10.5279 13.2774 10.5184 13.2832 10.5088V9.28613H10.4141C10.4525 10.0967 10.4141 17.9131 10.4141 17.9131H13.2822V13.0947C13.2822 12.8361 13.3024 12.5799 13.3779 12.3955C13.5859 11.8796 14.0563 11.3468 14.8486 11.3467C15.8871 11.3467 16.3017 12.1381 16.3018 13.2969V17.9131H19.1699V12.9658C19.1699 10.3166 17.7552 9.08312 15.8682 9.08301ZM7.41309 5.12695C6.43195 5.12701 5.79004 5.77197 5.79004 6.61816C5.79024 7.44624 6.41395 8.1084 7.37598 8.1084H7.39453C8.39464 8.10825 9.0164 7.44615 9.0166 6.61816C8.99756 5.77193 8.39452 5.12695 7.41309 5.12695Z" fill="#101011"/>
</svg>
