<svg width="44" height="44" viewBox="0 0 44 44" fill="none" xmlns="http://www.w3.org/2000/svg">
<path d="M41.958 43.7428L25.2607 27.0454C23.9273 28.1806 22.394 29.0592 20.6607 29.6814C18.9273 30.3037 17.1855 30.6148 15.4353 30.6148C11.1642 30.6148 7.54932 29.1363 4.59065 26.1794C1.63243 23.2226 0.15332 19.6099 0.15332 15.3414C0.15332 11.0726 1.63176 7.45678 4.58865 4.49411C7.54554 1.53189 11.1582 0.0507812 15.4267 0.0507812C19.6955 0.0507812 23.3113 1.52989 26.274 4.48811C29.2362 7.44678 30.7173 11.0617 30.7173 15.3328C30.7173 17.1857 30.3891 18.9788 29.7327 20.7121C29.0762 22.4454 28.2147 23.9274 27.148 25.1581L43.8453 41.8561L41.958 43.7428ZM15.4353 27.9481C18.9735 27.9481 21.9607 26.7301 24.3967 24.2941C26.8327 21.8586 28.0507 18.8714 28.0507 15.3328C28.0507 11.7941 26.8327 8.807 24.3967 6.37145C21.9607 3.93545 18.9735 2.71745 15.4353 2.71745C11.8967 2.71745 8.90954 3.93545 6.47399 6.37145C4.03799 8.807 2.81999 11.7941 2.81999 15.3328C2.81999 18.8714 4.03799 21.8586 6.47399 24.2941C8.90954 26.7301 11.8967 27.9481 15.4353 27.9481Z" fill="white"/>
</svg>
