<svg width="35" height="24" viewBox="0 0 35 24" fill="none" xmlns="http://www.w3.org/2000/svg">
<path d="M34.1421 5.17333C34.1421 5.17333 33.8101 2.82667 32.7879 1.78667C31.5001 0.426667 30.0529 0.426667 29.3758 0.346667C24.6369 0 17.5072 0 17.5072 0H17.494C17.494 0 10.3645 0 5.59819 0.346667C4.93437 0.426667 3.48719 0.426667 2.18611 1.78667C1.1771 2.82667 0.845192 5.17333 0.845192 5.17333C0.845192 5.17333 0.5 7.94667 0.5 10.7067V13.2933C0.5 16.0533 0.845192 18.8133 0.845192 18.8133C0.845192 18.8133 1.1771 21.16 2.1994 22.2C3.48719 23.56 5.18659 23.52 5.94338 23.6533C8.66507 23.92 17.494 24 17.494 24C17.494 24 24.6367 23.9867 29.3897 23.64C30.0535 23.56 31.5007 23.56 32.8018 22.2C33.8241 21.16 34.156 18.8133 34.156 18.8133C34.156 18.8133 34.5 16.0533 34.5 13.2933V10.7067C34.4867 7.94667 34.1415 5.17333 34.1415 5.17333H34.1421ZM13.9884 16.4267V6.84L23.1756 11.6533L13.9884 16.4267Z" fill="#101011"/>
</svg>
